HIERARCHY
ROOT Hips
{
	OFFSET 0.000000 0.000000 0.000000
	CHANNELS 6 Xposition Yposition Zposition Xrotation Yrotation Zrotation
	JOINT LeftUpLeg_virtual
	{
		OFFSET 0.000000 0.000000 0.000000
		CHANNELS 3 Xrotation Yrotation Zrotation
		JOINT LeftUpLeg
		{
			OFFSET 15.427100 -6.655098 0.678600
			CHANNELS 3 Xrotation Yrotation Zrotation
			JOINT LeftLeg
			{
				OFFSET 4.081073 -39.591068 13.024000
				CHANNELS 3 Xrotation Yrotation Zrotation
				JOINT LeftFoot
				{
					OFFSET -4.081074 -37.707932 -15.979700
					CHANNELS 3 Xrotation Yrotation Zrotation
					JOINT LeftToeBase
					{
						OFFSET 5.346399 -15.068900 20.645000
						CHANNELS 3 Xrotation Yrotation Zrotation
						JOINT LeftToe_End
						{
							OFFSET 2.754700 0.931300 11.300900
							CHANNELS 3 Xrotation Yrotation Zrotation
							End Site
							{
								OFFSET 0 0 0
							}
						}
					}
				}
			}
		}
	}
	JOINT RightUpLeg_virtual
	{
		OFFSET 0.000000 0.000000 0.000000
		CHANNELS 3 Xrotation Yrotation Zrotation
		JOINT RightUpLeg
		{
			OFFSET -15.569500 -6.655098 0.678600
			CHANNELS 3 Xrotation Yrotation Zrotation
			JOINT RightLeg
			{
				OFFSET -4.081825 -39.591045 13.023800
				CHANNELS 3 Xrotation Yrotation Zrotation
				JOINT RightFoot
				{
					OFFSET 4.081824 -37.707954 -15.979600
					CHANNELS 3 Xrotation Yrotation Zrotation
					JOINT RightToeBase
					{
						OFFSET -5.346400 -15.068900 20.645000
						CHANNELS 3 Xrotation Yrotation Zrotation
						JOINT RightToe_End
						{
							OFFSET -2.754700 0.931300 11.300900
							CHANNELS 3 Xrotation Yrotation Zrotation
							End Site
							{
								OFFSET 0 0 0
							}
						}
					}
				}
			}
		}
	}
	JOINT Spine_virtual
	{
		OFFSET 0.000000 0.000000 0.000000
		CHANNELS 3 Xrotation Yrotation Zrotation
		JOINT Spine
		{
			OFFSET -0.279200 12.230698 -2.892100
			CHANNELS 3 Xrotation Yrotation Zrotation
			JOINT Spine1
			{
				OFFSET -0.232667 10.192268 -1.242267
				CHANNELS 3 Xrotation Yrotation Zrotation
				JOINT Spine1_split
				{
					OFFSET -0.232667 10.192268 -1.242267
					CHANNELS 3 Xrotation Yrotation Zrotation
					JOINT Spine2
					{
						OFFSET -0.232667 10.192268 -1.242267
						CHANNELS 3 Xrotation Yrotation Zrotation
						JOINT Neck_virtual
						{
							OFFSET 0.000000 0.000000 0.000000
							CHANNELS 3 Xrotation Yrotation Zrotation
							JOINT Neck
							{
								OFFSET -0.418800 17.814194 8.416900
								CHANNELS 3 Xrotation Yrotation Zrotation
								JOINT Head
								{
									OFFSET 0.000000 7.031097 3.806800
									CHANNELS 3 Xrotation Yrotation Zrotation
									JOINT HeadTop_End
									{
										OFFSET 0.000000 24.646606 12.978600
										CHANNELS 3 Xrotation Yrotation Zrotation
										End Site
										{
											OFFSET 0 0 0
										}
									}
								}
							}
						}
						JOINT LeftShoulder_virtual
						{
							OFFSET 0.000000 0.000000 0.000000
							CHANNELS 3 Xrotation Yrotation Zrotation
							JOINT LeftShoulder
							{
								OFFSET 8.476499 7.247704 -3.868750
								CHANNELS 3 Xrotation Yrotation Zrotation
								JOINT LeftShoulder_split
								{
									OFFSET 8.476499 7.247704 -3.868750
									CHANNELS 3 Xrotation Yrotation Zrotation
									JOINT LeftArm
									{
										OFFSET 9.308998 -2.777710 0.208600
										CHANNELS 3 Xrotation Yrotation Zrotation
										JOINT LeftForeArm
										{
											OFFSET 29.972298 0.000000 0.000000
											CHANNELS 3 Xrotation Yrotation Zrotation
											JOINT LeftHand
											{
												OFFSET 26.026505 0.000000 0.000000
												CHANNELS 3 Xrotation Yrotation Zrotation
												End Site
												{
													OFFSET 0 0 0
												}
											}
										}
									}
								}
							}
						}
						JOINT RightShoulder_virtual
						{
							OFFSET 0.000000 0.000000 0.000000
							CHANNELS 3 Xrotation Yrotation Zrotation
							JOINT RightShoulder
							{
								OFFSET -7.570500 7.247704 -3.868750
								CHANNELS 3 Xrotation Yrotation Zrotation
								JOINT RightShoulder_split
								{
									OFFSET -7.570500 7.247704 -3.868750
									CHANNELS 3 Xrotation Yrotation Zrotation
									JOINT RightArm
									{
										OFFSET -9.308998 -2.777710 0.208500
										CHANNELS 3 Xrotation Yrotation Zrotation
										JOINT RightForeArm
										{
											OFFSET -29.972300 0.000000 0.000000
											CHANNELS 3 Xrotation Yrotation Zrotation
											JOINT RightHand
											{
												OFFSET -26.026505 0.000000 0.000000
												CHANNELS 3 Xrotation Yrotation Zrotation
												End Site
												{
													OFFSET 0 0 0
												}
											}
										}
									}
								}
							}
						}
					}
				}
			}
		}
	}
}
MOTION
Frames: 9
Frame Time: 0.03333333
0.789906 93.882538 -10.463112 0.000000 0.000000 0.000000 -3.272283 -2.002112 -2.199116 -7.106236 31.124537 14.179913 13.647937 1.973076 -1.302550 -10.171736 -0.431942 -8.809320 1.203389 -4.022254 -0.832139 0.000000 0.000000 0.000000 -3.043199 0.987570 -2.230330 -6.966574 -3.915745 -11.306041 10.213277 -10.411865 1.726770 0.400381 -3.471810 17.438692 -3.658806 4.736680 -8.713044 0.000000 0.000000 0.000000 -7.691815 2.470299 -2.934775 12.731356 6.368513 -3.155267 -3.864351 -0.340699 -3.925059 0.204254 -1.040210 0.276781 0.000000 0.000000 0.000000 -12.029738 5.922473 -2.921887 11.795860 62.410013 -23.781124 -87.675587 -18.618723 -130.829951 0.000000 0.000000 0.000000 -16.354441 1.533157 -3.393110 2.592836 -13.109640 -14.822279 7.515835 -3.010712 -4.120854 -14.406891 4.904092 -60.502027 2.185874 9.249213 2.861518 0.000000 0.000000 0.000000 -22.175927 1.208707 -0.595113 7.527101 -11.325021 32.144588 -1.551164 -6.891916 -8.267202 -2.307898 55.349210 79.368608 -48.982527 -42.861718 -25.424326 0.000000 0.000000 0.000000 
0.908673 93.776741 -10.503143 0.000000 0.000000 0.000000 -3.459090 -2.112874 -2.213479 -7.520060 31.057171 14.393644 13.841646 1.993384 -1.393503 -9.910972 -0.564723 -9.067838 1.208995 -4.000247 -0.725486 0.000000 0.000000 0.000000 -3.119072 1.100462 -2.286540 -6.964768 -4.004759 -11.194225 10.121458 -10.556258 1.749300 0.841898 -3.656800 17.449890 -3.678712 4.804157 -8.668278 0.000000 0.000000 0.000000 -7.740614 2.464369 -2.953347 12.807984 6.363885 -3.224035 -3.889514 -0.333379 -3.995910 0.230656 -0.957122 0.261778 0.000000 0.000000 0.000000 -12.182583 5.894929 -2.912229 11.274513 62.336473 -23.278953 -87.693106 -18.842839 -130.890781 0.000000 0.000000 0.000000 -16.471841 1.578428 -3.438097 2.560697 -12.723697 -15.036235 7.368319 -3.155609 -4.038515 -14.339951 4.756384 -60.195509 2.117626 9.292226 2.695417 0.000000 0.000000 0.000000 -22.210284 1.252690 -0.631995 7.369256 -11.302362 32.147737 -1.324560 -6.096579 -8.180214 -2.433458 55.398223 79.903631 -48.803273 -42.549189 -25.137646 0.000000 0.000000 0.000000 
1.053946 93.614708 -10.599110 0.000000 0.000000 0.000000 -3.499269 -2.341825 -2.380463 -8.397521 31.088853 14.862208 14.450976 2.147458 -1.482711 -9.844919 -0.688234 -8.809317 1.178703 -3.926099 -0.764808 0.000000 0.000000 0.000000 -3.168441 1.500461 -2.442658 -6.964967 -4.137131 -10.880370 10.092040 -10.678316 1.754416 1.328731 -4.036616 17.402557 -4.082786 4.875819 -8.492723 0.000000 0.000000 0.000000 -7.905644 2.673898 -3.051575 12.805374 6.362077 -3.300574 -3.897604 -0.245477 -4.038812 0.205778 -0.902783 0.250801 0.000000 0.000000 0.000000 -12.328436 5.929952 -2.874475 10.791441 62.223706 -22.678077 -87.802020 -19.259774 -130.599159 0.000000 0.000000 0.000000 -16.544917 1.696546 -3.428228 2.565179 -12.406468 -15.122174 7.334224 -3.435337 -4.088610 -14.390736 4.663015 -59.529204 2.212238 9.122557 2.474133 0.000000 0.000000 0.000000 -22.177588 1.369440 -0.640374 7.088179 -11.425027 32.147375 -1.015833 -5.573594 -8.090398 -2.383300 55.725372 80.212512 -48.522975 -42.239604 -24.733443 0.000000 0.000000 0.000000 
1.218994 93.487198 -10.872490 0.000000 0.000000 0.000000 -3.333085 -2.672982 -2.653890 -9.545472 31.144915 15.389738 15.393534 2.378084 -1.536707 -9.946813 -0.813721 -8.179989 1.354145 -3.801529 -1.015718 0.000000 0.000000 0.000000 -3.121859 2.116839 -2.646349 -6.927051 -4.246087 -10.398715 9.833190 -10.751513 1.619826 1.433882 -4.641635 17.002475 -4.322527 4.925131 -8.256955 0.000000 0.000000 0.000000 -7.961047 2.968383 -3.189388 12.685099 6.375539 -3.403131 -3.881441 -0.088397 -4.033601 0.136509 -0.865008 0.250371 0.000000 0.000000 0.000000 -12.430037 6.027228 -2.808153 10.346415 62.085074 -22.006910 -87.982023 -19.841713 -129.973528 0.000000 0.000000 0.000000 -16.541385 1.877926 -3.368687 2.589357 -12.232888 -15.170518 7.438737 -3.846397 -4.149815 -14.614709 4.469394 -58.658395 2.451408 8.808104 2.191062 0.000000 0.000000 0.000000 -22.061127 1.553464 -0.619022 6.722812 -11.692562 32.138113 -0.754713 -5.486091 -7.814328 -2.124291 56.173624 80.162112 -48.141543 -42.002207 -24.223008 0.000000 0.000000 0.000000 
1.451232 93.457520 -11.332977 0.000000 0.000000 0.000000 -2.903841 -2.892361 -2.942126 -10.778610 31.162909 15.811179 16.441886 2.557854 -1.522344 -10.029492 -0.996562 -7.506933 1.731156 -3.638522 -1.439417 0.000000 0.000000 0.000000 -2.934712 2.704886 -2.851423 -6.990324 -4.293126 -9.860027 9.361220 -10.718802 1.334120 1.238000 -5.319736 16.169146 -4.002931 4.959966 -8.067305 0.000000 0.000000 0.000000 -7.772444 3.203100 -3.296577 12.466575 6.411963 -3.568458 -3.843670 0.119357 -3.981499 0.091091 -0.829180 0.246517 0.000000 0.000000 0.000000 -12.456292 6.170410 -2.720775 9.845400 61.940506 -21.239194 -88.214734 -20.521510 -129.043802 0.000000 0.000000 0.000000 -16.456914 2.105375 -3.286286 2.621038 -12.190311 -15.250762 7.581009 -4.218715 -4.084901 -14.982701 3.989994 -57.719258 2.813544 8.368677 1.838333 0.000000 0.000000 0.000000 -21.857471 1.787956 -0.574610 6.317312 -12.067192 32.122219 -0.634600 -5.772497 -7.299085 -1.563580 56.558905 79.666753 -47.645791 -41.909498 -23.624380 0.000000 0.000000 0.000000 
1.783816 93.550858 -11.977283 0.000000 0.000000 0.000000 -2.250053 -2.827263 -3.154180 -11.868210 31.210064 15.928247 17.296076 2.623107 -1.439287 -10.002186 -1.252428 -7.008289 2.020996 -3.468684 -1.864638 0.000000 0.000000 0.000000 -2.628714 2.993704 -3.019312 -7.342576 -4.289400 -9.445077 8.902276 -10.503951 1.034851 1.410357 -5.829690 15.290367 -3.503639 5.022280 -8.034751 0.000000 0.000000 0.000000 -7.312830 3.300425 -3.352545 12.242678 6.478965 -3.817953 -3.797152 0.357344 -3.900328 0.092739 -0.765414 0.236953 0.000000 0.000000 0.000000 -12.398611 6.339246 -2.619835 9.219567 61.822952 -20.334151 -88.475067 -21.249079 -127.871250 0.000000 0.000000 0.000000 -16.305625 2.348581 -3.216104 2.657489 -12.179941 -15.389772 7.643414 -4.346481 -3.957336 -15.414489 3.137957 -56.828079 3.227151 7.777261 1.406592 0.000000 0.000000 0.000000 -21.568814 2.056708 -0.525916 5.899365 -12.471730 32.082696 -0.679802 -6.137435 -6.618896 -0.688512 56.725148 78.726270 -47.013613 -42.056473 -22.961556 0.000000 0.000000 0.000000 
2.204272 93.723099 -12.617416 0.000000 0.000000 0.000000 -1.537799 -2.558277 -3.244231 -12.600862 31.417023 15.659187 17.741690 2.629497 -1.288691 -9.870582 -1.514537 -6.750760 2.021356 -3.313216 -2.198008 0.000000 0.000000 0.000000 -2.258027 2.923545 -3.100527 -8.158005 -4.195361 -9.261223 8.550143 -9.941908 0.799706 2.347672 -5.946804 14.952771 -3.588120 5.141285 -8.243769 0.000000 0.000000 0.000000 -6.739209 3.176638 -3.347162 12.155864 6.550729 -4.170647 -3.747663 0.606870 -3.805649 0.110510 -0.700368 0.226080 0.000000 0.000000 0.000000 -12.265000 6.501505 -2.519118 8.339209 61.759322 -19.213534 -88.738296 -21.988962 -126.537615 0.000000 0.000000 0.000000 -16.111086 2.585120 -3.175377 2.700555 -12.069197 -15.553618 7.526500 -4.276609 -3.928079 -15.825844 1.953167 -56.061305 3.606821 7.023019 0.885240 0.000000 0.000000 0.000000 -21.216864 2.335170 -0.483622 5.489231 -12.800585 32.034130 -0.974504 -6.406622 -5.831630 0.342659 56.614748 77.528856 -46.227741 -42.450070 -22.225121 0.000000 0.000000 0.000000 
2.686518 93.875961 -13.267239 0.000000 0.000000 0.000000 -0.943715 -2.254238 -3.177958 -12.938843 31.861367 15.105570 17.786298 2.636341 -1.110273 -9.607939 -1.681203 -6.748442 1.788245 -3.176024 -2.421605 0.000000 0.000000 0.000000 -1.831262 2.345761 -3.088059 -9.465788 -3.932396 -9.343466 8.325864 -8.988498 0.596246 3.870111 -5.566496 15.154148 -4.319296 5.305591 -8.708471 0.000000 0.000000 0.000000 -6.178066 2.711629 -3.257983 12.325434 6.599901 -4.659177 -3.731061 0.837740 -3.726699 0.122377 -0.659608 0.213683 0.000000 0.000000 0.000000 -12.089994 6.635072 -2.431501 7.078520 61.774382 -17.791166 -88.991969 -22.708152 -125.140117 0.000000 0.000000 0.000000 -15.915799 2.805779 -3.165503 2.757217 -11.745496 -15.653648 7.412491 -4.094287 -3.948671 -16.059737 0.576842 -55.400026 3.858718 6.020737 0.287173 0.000000 0.000000 0.000000 -20.832410 2.594654 -0.452988 5.108431 -12.992820 31.987603 -1.436631 -6.570586 -5.122252 1.392952 56.254603 76.274990 -45.266399 -43.004637 -21.364248 0.000000 0.000000 0.000000 
3.217173 93.917755 -13.967091 0.000000 0.000000 0.000000 -0.643737 -2.297855 -2.964805 -12.952262 32.628442 14.474791 17.667181 2.742414 -0.985415 -9.247257 -1.698856 -6.928425 1.477204 -3.064422 -2.495809 0.000000 0.000000 0.000000 -1.451900 1.284687 -2.990991 -11.089661 -3.529154 -9.615687 8.339977 -7.872760 0.432148 5.435958 -4.893874 15.246246 -4.589783 5.425681 -9.373196 0.000000 0.000000 0.000000 -5.744279 1.805652 -3.099662 12.827498 6.597443 -5.292645 -3.756995 1.040235 -3.667978 0.127093 -0.640309 0.211503 0.000000 0.000000 0.000000 -11.924861 6.737743 -2.360076 5.363519 61.895516 -15.997391 -89.218369 -23.413759 -123.729915 0.000000 0.000000 0.000000 -15.721866 2.997535 -3.170119 2.832613 -11.139306 -15.618047 7.288090 -3.859836 -3.984349 -16.054727 -0.880602 -54.758839 3.914032 4.813133 -0.359055 0.000000 0.000000 0.000000 -20.434292 2.828286 -0.436419 4.767354 -12.985975 31.960965 -1.990791 -6.682859 -4.582120 2.342053 55.680023 75.126480 -44.134818 -43.600113 -20.336337 0.000000 0.000000 0.000000 
